[h264 @ 0x61dba85e8200] non-existing PPS 0 referenced
    Last message repeated 1 times
[h264 @ 0x61dba85e8200] decode_slice_header error
[h264 @ 0x61dba85e8200] no frame!
[h264 @ 0x61dba85e8200] non-existing PPS 0 referenced
    Last message repeated 1 times
[h264 @ 0x61dba85e8200] decode_slice_header error
[h264 @ 0x61dba85e8200] no frame!
[h264 @ 0x61dba85e8200] non-existing PPS 0 referenced
    Last message repeated 1 times
[h264 @ 0x61dba85e8200] decode_slice_header error
[h264 @ 0x61dba85e8200] no frame!
[h264 @ 0x61dba85e8200] non-existing PPS 0 referenced
    Last message repeated 1 times
[h264 @ 0x61dba85e8200] decode_slice_header error
[h264 @ 0x61dba85e8200] no frame!
[h264 @ 0x61dba85e8200] non-existing PPS 0 referenced
    Last message repeated 1 times
[h264 @ 0x61dba85e8200] decode_slice_header error
[h264 @ 0x61dba85e8200] no frame!
[h264 @ 0x61dba85e8200] non-existing PPS 0 referenced
    Last message repeated 1 times
[h264 @ 0x61dba85e8200] decode_slice_header error
[h264 @ 0x61dba85e8200] no frame!
[h264 @ 0x61dba85e8200] non-existing PPS 0 referenced
    Last message repeated 1 times
[h264 @ 0x61dba85e8200] decode_slice_header error
[h264 @ 0x61dba85e8200] no frame!
[h264 @ 0x61dba85e8200] non-existing PPS 0 referenced
    Last message repeated 1 times
[h264 @ 0x61dba85e8200] decode_slice_header error
[h264 @ 0x61dba85e8200] no frame!
[h264 @ 0x61dba85e8200] non-existing PPS 0 referenced
    Last message repeated 1 times
[h264 @ 0x61dba85e8200] decode_slice_header error
[h264 @ 0x61dba85e8200] no frame!
[h264 @ 0x61dba85e8200] non-existing PPS 0 referenced
    Last message repeated 1 times
[h264 @ 0x61dba85e8200] decode_slice_header error
[h264 @ 0x61dba85e8200] no frame!
[h264 @ 0x61dba85e8200] non-existing PPS 0 referenced
    Last message repeated 1 times
[h264 @ 0x61dba85e8200] decode_slice_header error
[h264 @ 0x61dba85e8200] no frame!
[h264 @ 0x61dba85e8200] non-existing PPS 0 referenced
    Last message repeated 1 times
[h264 @ 0x61dba85e8200] decode_slice_header error
[h264 @ 0x61dba85e8200] no frame!
[h264 @ 0x61dba85e8200] non-existing PPS 0 referenced
    Last message repeated 1 times
[h264 @ 0x61dba85e8200] decode_slice_header error
[h264 @ 0x61dba85e8200] no frame!
[h264 @ 0x61dba85e8200] non-existing PPS 0 referenced
    Last message repeated 1 times
[h264 @ 0x61dba85e8200] decode_slice_header error
[h264 @ 0x61dba85e8200] no frame!
[h264 @ 0x61dba85e8200] non-existing PPS 0 referenced
    Last message repeated 1 times
[h264 @ 0x61dba85e8200] decode_slice_header error
[h264 @ 0x61dba85e8200] no frame!
[h264 @ 0x61dba85e8200] non-existing PPS 0 referenced
    Last message repeated 1 times
[h264 @ 0x61dba85e8200] decode_slice_header error
[h264 @ 0x61dba85e8200] no frame!
[h264 @ 0x61dba85e8200] non-existing PPS 0 referenced
    Last message repeated 1 times
[h264 @ 0x61dba85e8200] decode_slice_header error
[h264 @ 0x61dba85e8200] no frame!
[h264 @ 0x61dba85e8200] non-existing PPS 0 referenced
    Last message repeated 1 times
[h264 @ 0x61dba85e8200] decode_slice_header error
[h264 @ 0x61dba85e8200] no frame!
[h264 @ 0x61dba85e8200] non-existing PPS 0 referenced
    Last message repeated 1 times
[h264 @ 0x61dba85e8200] decode_slice_header error
[h264 @ 0x61dba85e8200] no frame!
[h264 @ 0x61dba85e8200] non-existing PPS 0 referenced
    Last message repeated 1 times
[h264 @ 0x61dba85e8200] decode_slice_header error
[h264 @ 0x61dba85e8200] no frame!
[h264 @ 0x61dba85e8200] non-existing PPS 0 referenced
    Last message repeated 1 times
[h264 @ 0x61dba85e8200] decode_slice_header error
[h264 @ 0x61dba85e8200] no frame!
[h264 @ 0x61dba85e8200] non-existing PPS 0 referenced
    Last message repeated 1 times
[h264 @ 0x61dba85e8200] decode_slice_header error
[h264 @ 0x61dba85e8200] no frame!
[h264 @ 0x61dba85e8200] non-existing PPS 0 referenced
    Last message repeated 1 times
[h264 @ 0x61dba85e8200] decode_slice_header error
[h264 @ 0x61dba85e8200] no frame!
[h264 @ 0x61dba85e8200] non-existing PPS 0 referenced
    Last message repeated 1 times
[h264 @ 0x61dba85e8200] decode_slice_header error
[h264 @ 0x61dba85e8200] no frame!
[h264 @ 0x61dba85e8200] non-existing PPS 0 referenced
    Last message repeated 1 times
[h264 @ 0x61dba85e8200] decode_slice_header error
[h264 @ 0x61dba85e8200] no frame!
[h264 @ 0x61dba85e8200] non-existing PPS 0 referenced
    Last message repeated 1 times
[h264 @ 0x61dba85e8200] decode_slice_header error
[h264 @ 0x61dba85e8200] no frame!
[h264 @ 0x61dba85e8200] non-existing PPS 0 referenced
    Last message repeated 1 times
[h264 @ 0x61dba85e8200] decode_slice_header error
[h264 @ 0x61dba85e8200] no frame!
[h264 @ 0x61dba85e8200] non-existing PPS 0 referenced
    Last message repeated 1 times
[h264 @ 0x61dba85e8200] decode_slice_header error
[h264 @ 0x61dba85e8200] no frame!
[h264 @ 0x61dba85e8200] non-existing PPS 0 referenced
    Last message repeated 1 times
[h264 @ 0x61dba85e8200] decode_slice_header error
[h264 @ 0x61dba85e8200] no frame!
[h264 @ 0x61dba85e8200] non-existing PPS 0 referenced
    Last message repeated 1 times
[h264 @ 0x61dba85e8200] decode_slice_header error
[h264 @ 0x61dba85e8200] no frame!
[h264 @ 0x61dba85e8200] non-existing PPS 0 referenced
    Last message repeated 1 times
[h264 @ 0x61dba85e8200] decode_slice_header error
[h264 @ 0x61dba85e8200] no frame!
[h264 @ 0x61dba85e8200] non-existing PPS 0 referenced
    Last message repeated 1 times
[h264 @ 0x61dba85e8200] decode_slice_header error
[h264 @ 0x61dba85e8200] no frame!
[h264 @ 0x61dba85e8200] non-existing PPS 0 referenced
    Last message repeated 1 times
[h264 @ 0x61dba85e8200] decode_slice_header error
[h264 @ 0x61dba85e8200] no frame!
[h264 @ 0x61dba85e8200] non-existing PPS 0 referenced
    Last message repeated 1 times
[h264 @ 0x61dba85e8200] decode_slice_header error
[h264 @ 0x61dba85e8200] no frame!
[h264 @ 0x61dba85e8200] non-existing PPS 0 referenced
    Last message repeated 1 times
[h264 @ 0x61dba85e8200] decode_slice_header error
[h264 @ 0x61dba85e8200] no frame!
[h264 @ 0x61dba85e8200] non-existing PPS 0 referenced
    Last message repeated 1 times
[h264 @ 0x61dba85e8200] decode_slice_header error
[h264 @ 0x61dba85e8200] no frame!
[h264 @ 0x61dba85e8200] non-existing PPS 0 referenced
    Last message repeated 1 times
[h264 @ 0x61dba85e8200] decode_slice_header error
[h264 @ 0x61dba85e8200] no frame!
[h264 @ 0x61dba85e8200] non-existing PPS 0 referenced
    Last message repeated 1 times
[h264 @ 0x61dba85e8200] decode_slice_header error
[h264 @ 0x61dba85e8200] no frame!
[h264 @ 0x61dba85e8200] non-existing PPS 0 referenced
    Last message repeated 1 times
[h264 @ 0x61dba85e8200] decode_slice_header error
[h264 @ 0x61dba85e8200] no frame!
[h264 @ 0x61dba85e8200] non-existing PPS 0 referenced
    Last message repeated 1 times
[h264 @ 0x61dba85e8200] decode_slice_header error
[h264 @ 0x61dba85e8200] no frame!
[h264 @ 0x61dba85e8200] non-existing PPS 0 referenced
    Last message repeated 1 times
[h264 @ 0x61dba85e8200] decode_slice_header error
[h264 @ 0x61dba85e8200] no frame!
[h264 @ 0x61dba85e8200] non-existing PPS 0 referenced
    Last message repeated 1 times
[h264 @ 0x61dba85e8200] decode_slice_header error
[h264 @ 0x61dba85e8200] no frame!
[h264 @ 0x61dba85e8200] non-existing PPS 0 referenced
    Last message repeated 1 times
[h264 @ 0x61dba85e8200] decode_slice_header error
[h264 @ 0x61dba85e8200] no frame!
[h264 @ 0x61dba85e8200] non-existing PPS 0 referenced
    Last message repeated 1 times
[h264 @ 0x61dba85e8200] decode_slice_header error
[h264 @ 0x61dba85e8200] no frame!
[h264 @ 0x61dba85e8200] non-existing PPS 0 referenced
    Last message repeated 1 times
[h264 @ 0x61dba85e8200] decode_slice_header error
[h264 @ 0x61dba85e8200] no frame!
[h264 @ 0x61dba85e8200] non-existing PPS 0 referenced
    Last message repeated 1 times
[h264 @ 0x61dba85e8200] decode_slice_header error
[h264 @ 0x61dba85e8200] no frame!
[h264 @ 0x61dba85e8200] Increasing reorder buffer to 2
[h264 @ 0x61dba85e8200] Increasing reorder buffer to 3
Input #0, mpegts, from 'http://127.0.0.1:6880/ace/getstream?id=d5b2c6b940cf3df5e8f9dc6f000f0ea23a10b151':
  Duration: N/A, start: 14097.666800, bitrate: N/A
  Program 1 
    Metadata:
      service_name    : DAZN 1 MOVISTAR HD Spain
      service_provider: FFmpeg
  Stream #0:0[0x100]: Video: h264 (High) ([27][0][0][0] / 0x001B), yuv420p(tv, bt709, progressive), 1920x1080 [SAR 1:1 DAR 16:9], 50 fps, 50 tbr, 90k tbn
  Stream #0:1[0x101](eng): Audio: aac (HE-AAC) ([15][0][0][0] / 0x000F), 48000 Hz, stereo, fltp, 129 kb/s
Stream mapping:
  Stream #0:0 -> #0:0 (copy)
  Stream #0:1 -> #0:1 (aac (native) -> aac (native))
Press [q] to stop, [?] for help
Output #0, flv, to 'rtmp://127.0.0.1:1935/stream/ch2':
  Metadata:
    encoder         : Lavf60.16.100
  Stream #0:0: Video: h264 (High) ([7][0][0][0] / 0x0007), yuv420p(tv, bt709, progressive), 1920x1080 [SAR 1:1 DAR 16:9], q=2-31, 50 fps, 50 tbr, 1k tbn
  Stream #0:1(eng): Audio: aac (LC) ([10][0][0][0] / 0x000A), 48000 Hz, stereo, fltp, 128 kb/s
    Metadata:
      encoder         : Lavc60.31.102 aac
size=       0kB time=-00:00:00.02 bitrate=N/A speed=N/A    size=     117kB time=00:00:01.00 bitrate= 955.0kbits/s speed=1.86x    size=     211kB time=00:00:01.52 bitrate=1130.4kbits/s speed=1.44x    size=     321kB time=00:00:02.08 bitrate=1260.3kbits/s speed=1.31x    size=     488kB time=00:00:02.58 bitrate=1544.5kbits/s speed=1.22x    size=     735kB time=00:00:03.10 bitrate=1938.4kbits/s speed=1.18x    size=     912kB time=00:00:03.62 bitrate=2059.7kbits/s speed=1.16x    size=    1089kB time=00:00:04.12 bitrate=2162.2kbits/s speed=1.13x    size=    1264kB time=00:00:04.64 bitrate=2228.2kbits/s speed=1.12x    size=    1499kB time=00:00:05.14 bitrate=2385.3kbits/s speed= 1.1x    size=    1639kB time=00:00:05.66 bitrate=2369.7kbits/s speed=1.09x    size=    1746kB time=00:00:06.18 bitrate=2312.4kbits/s speed=1.09x    size=    1940kB time=00:00:06.68 bitrate=2376.3kbits/s speed=1.08x    size=    2078kB time=00:00:07.20 bitrate=2361.9kbits/s speed=1.07x    size=    2214kB time=00:00:07.70 bitrate=2353.7kbits/s speed=1.07x    size=    2367kB time=00:00:08.22 bitrate=2356.6kbits/s speed=1.06x    size=    2587kB time=00:00:08.74 bitrate=2422.4kbits/s speed=1.06x    size=    2746kB time=00:00:09.24 bitrate=2432.6kbits/s speed=1.05x    size=    2903kB time=00:00:09.76 bitrate=2434.6kbits/s speed=1.05x    size=    3035kB time=00:00:10.26 bitrate=2421.8kbits/s speed=1.05x    size=    3216kB time=00:00:10.78 bitrate=2442.4kbits/s speed=1.05x    size=    3311kB time=00:00:11.30 bitrate=2398.8kbits/s speed=1.05x    size=    3420kB time=00:00:11.80 bitrate=2372.8kbits/s speed=1.04x    size=    3553kB time=00:00:12.32 bitrate=2361.4kbits/s speed=1.04x    size=    3802kB time=00:00:12.82 bitrate=2428.2kbits/s speed=1.04x    size=    3974kB time=00:00:13.34 bitrate=2439.4kbits/s speed=1.04x    size=    4166kB time=00:00:13.86 bitrate=2460.8kbits/s speed=1.04x    size=    4334kB time=00:00:14.36 bitrate=2471.5kbits/s speed=1.03x    size=    4556kB time=00:00:14.88 bitrate=2506.9kbits/s speed=1.03x    size=    4730kB time=00:00:15.38 bitrate=2518.5kbits/s speed=1.03x    size=    4860kB time=00:00:15.90 bitrate=2502.8kbits/s speed=1.03x    size=    5015kB time=00:00:16.42 bitrate=2501.0kbits/s speed=1.03x    size=    5170kB time=00:00:16.96 bitrate=2496.1kbits/s speed=1.03x    size=    5315kB time=00:00:17.48 bitrate=2489.7kbits/s speed=1.03x    size=    5460kB time=00:00:17.98 bitrate=2486.7kbits/s speed=1.03x    size=    5673kB time=00:00:18.50 bitrate=2511.0kbits/s speed=1.03x    size=    5837kB time=00:00:19.02 bitrate=2513.2kbits/s speed=1.03x    size=    6014kB time=00:00:19.52 bitrate=2523.0kbits/s speed=1.03x    size=    6141kB time=00:00:20.04 bitrate=2509.5kbits/s speed=1.02x    size=    6329kB time=00:00:20.60 bitrate=2516.1kbits/s speed=1.02x    size=    6432kB time=00:00:21.10 bitrate=2496.2kbits/s speed=1.02x    size=    6556kB time=00:00:21.62 bitrate=2483.2kbits/s speed=1.02x    size=    6744kB time=00:00:22.12 bitrate=2496.9kbits/s speed=1.02x    size=    6892kB time=00:00:22.64 bitrate=2493.1kbits/s speed=1.02x    size=    7065kB time=00:00:23.16 bitrate=2498.3kbits/s speed=1.02x    size=    7258kB time=00:00:23.66 bitrate=2512.3kbits/s speed=1.02x    size=    7510kB time=00:00:24.18 bitrate=2543.6kbits/s speed=1.02x    size=    7671kB time=00:00:24.68 bitrate=2545.6kbits/s speed=1.02x    size=    7826kB time=00:00:25.20 bitrate=2543.4kbits/s speed=1.02x    size=    7969kB time=00:00:25.72 bitrate=2537.6kbits/s speed=1.02x    size=    8137kB time=00:00:26.22 bitrate=2541.5kbits/s speed=1.02x    size=    8252kB time=00:00:26.74 bitrate=2527.4kbits/s speed=1.02x    size=    8401kB time=00:00:27.24 bitrate=2525.9kbits/s speed=1.02x    size=    8547kB time=00:00:27.76 bitrate=2521.6kbits/s speed=1.02x    size=    8744kB time=00:00:28.28 bitrate=2532.4kbits/s speed=1.02x    size=    8906kB time=00:00:28.78 bitrate=2534.5kbits/s speed=1.02x    size=    9085kB time=00:00:29.30 bitrate=2539.4kbits/s speed=1.02x    size=    9304kB time=00:00:29.80 bitrate=2557.0kbits/s speed=1.02x    size=    9405kB time=00:00:30.32 bitrate=2540.5kbits/s speed=1.02x    size=    9505kB time=00:00:30.84 bitrate=2524.3kbits/s speed=1.02x    size=    9623kB time=00:00:31.34 bitrate=2514.7kbits/s speed=1.02x    size=    9801kB time=00:00:31.86 bitrate=2519.6kbits/s speed=1.02x    size=    9921kB time=00:00:32.36 bitrate=2510.9kbits/s speed=1.01x    size=   10098kB time=00:00:32.88 bitrate=2515.3kbits/s speed=1.01x    size=   10277kB time=00:00:33.40 bitrate=2520.1kbits/s speed=1.02x    size=   10529kB time=00:00:33.90 bitrate=2543.7kbits/s speed=1.01x    size=   10689kB time=00:00:34.42 bitrate=2543.4kbits/s speed=1.01x    size=   10867kB time=00:00:34.92 bitrate=2548.8kbits/s speed=1.01x    size=   11022kB time=00:00:35.44 bitrate=2547.2kbits/s speed=1.01x    size=   11204kB time=00:00:35.96 bitrate=2551.9kbits/s speed=1.01x    size=   11315kB time=00:00:36.46 bitrate=2541.8kbits/s speed=1.01x    size=   11455kB time=00:00:36.98 bitrate=2537.1kbits/s speed=1.01x    size=   11655kB time=00:00:37.48 bitrate=2547.0kbits/s speed=1.01x    size=   11794kB time=00:00:38.00 bitrate=2542.0kbits/s speed=1.01x    size=   11946kB time=00:00:38.52 bitrate=2540.0kbits/s speed=1.01x    size=   12117kB time=00:00:39.02 bitrate=2543.4kbits/s speed=1.01x    size=   12358kB time=00:00:39.54 bitrate=2560.0kbits/s speed=1.01x    size=   12483kB time=00:00:40.04 bitrate=2553.5kbits/s speed=1.01x    size=   12609kB time=00:00:40.56 bitrate=2546.2kbits/s speed=1.01x    size=   12718kB time=00:00:41.08 bitrate=2535.8kbits/s speed=1.01x    size=   12894kB time=00:00:41.58 bitrate=2540.0kbits/s speed=1.01x    size=   12997kB time=00:00:42.10 bitrate=2528.5kbits/s speed=1.01x    size=   13163kB time=00:00:42.60 bitrate=2530.8kbits/s speed=1.01x    size=   13340kB time=00:00:43.12 bitrate=2534.0kbits/s speed=1.01x    size=   13589kB time=00:00:43.64 bitrate=2550.5kbits/s speed=1.01x    size=   13772kB time=00:00:44.14 bitrate=2555.5kbits/s speed=1.01x    size=   13948kB time=00:00:44.66 bitrate=2558.1kbits/s speed=1.01x    size=   14168kB time=00:00:45.16 bitrate=2569.6kbits/s speed=1.01x    size=   14306kB time=00:00:45.68 bitrate=2565.3kbits/s speed=1.01x    size=   14411kB time=00:00:46.20 bitrate=2554.9kbits/s speed=1.01x    size=   14538kB time=00:00:46.70 bitrate=2549.8kbits/s speed=1.01x    size=   14741kB time=00:00:47.22 bitrate=2556.9kbits/s speed=1.01x    size=   14878kB time=00:00:47.72 bitrate=2553.7kbits/s speed=1.01x    size=   15027kB time=00:00:48.24 bitrate=2551.5kbits/s speed=1.01x    size=   15170kB time=00:00:48.76 bitrate=2548.3kbits/s speed=1.01x    size=   15421kB time=00:00:49.26 bitrate=2564.1kbits/s speed=1.01x    size=   15582kB time=00:00:49.78 bitrate=2563.9kbits/s speed=1.01x    size=   15707kB time=00:00:50.28 bitrate=2558.8kbits/s speed=1.01x    size=   15826kB time=00:00:50.80 bitrate=2551.7kbits/s speed=1.01x    size=   15990kB time=00:00:51.32 bitrate=2552.1kbits/s speed=1.01x    size=   16097kB time=00:00:51.82 bitrate=2544.4kbits/s speed=1.01x    size=   16234kB time=00:00:52.34 bitrate=2540.5kbits/s speed=1.01x    size=   16489kB time=00:00:52.84 bitrate=2556.1kbits/s speed=1.01x    size=   16665kB time=00:00:53.36 bitrate=2558.1kbits/s speed=1.01x    size=   16842kB time=00:00:53.88 bitrate=2560.4kbits/s speed=1.01x    size=   17008kB time=00:00:54.38 bitrate=2561.9kbits/s speed=1.01x    size=   17261kB time=00:00:54.90 bitrate=2575.3kbits/s speed=1.01x    size=   17397kB time=00:00:55.40 bitrate=2572.2kbits/s speed=1.01x    size=   17540kB time=00:00:55.92 bitrate=2569.2kbits/s speed=1.01x    size=   17645kB time=00:00:56.44 bitrate=2560.7kbits/s speed=1.01x    size=   17840kB time=00:00:56.94 bitrate=2566.3kbits/s speed=1.01x    size=   17981kB time=00:00:57.46 bitrate=2563.2kbits/s speed=1.01x    size=   18131kB time=00:00:57.96 bitrate=2562.3kbits/s speed=1.01x    size=   18288kB time=00:00:58.48 bitrate=2561.5kbits/s speed=1.01x    size=   18501kB time=00:00:59.00 bitrate=2568.6kbits/s speed=1.01x    size=   18680kB time=00:00:59.50 bitrate=2571.6kbits/s speed=1.01x    size=   18822kB time=00:01:00.02 bitrate=2568.7kbits/s speed=1.01x    size=   19019kB time=00:01:00.52 bitrate=2574.2kbits/s speed=1.01x    size=   19111kB time=00:01:01.04 bitrate=2564.6kbits/s speed=1.01x    size=   19215kB time=00:01:01.56 bitrate=2556.7kbits/s speed=1.01x    size=   19336kB time=00:01:02.06 bitrate=2552.1kbits/s speed=1.01x    size=   19564kB time=00:01:02.58 bitrate=2560.8kbits/s speed=1.01x    size=   19738kB time=00:01:03.08 bitrate=2563.1kbits/s speed=1.01x    size=   19924kB time=00:01:03.60 bitrate=2566.1kbits/s speed=1.01x    size=   20087kB time=00:01:04.12 bitrate=2566.0kbits/s speed=1.01x    size=   20339kB time=00:01:04.62 bitrate=2578.2kbits/s speed=1.01x    size=   20508kB time=00:01:05.14 bitrate=2578.7kbits/s speed=1.01x    size=   20644kB time=00:01:05.64 bitrate=2576.1kbits/s speed=1.01x    size=   20755kB time=00:01:06.16 bitrate=2569.6kbits/s speed=1.01x    size=   20925kB time=00:01:06.68 bitrate=2570.5kbits/s speed=1.01x    size=   21078kB time=00:01:07.18 bitrate=2570.0kbits/s speed=1.01x    size=   21229kB time=00:01:07.70 bitrate=2568.5kbits/s speed=1.01x    size=   21428kB time=00:01:08.20 bitrate=2573.6kbits/s speed=1.01x    size=   21584kB time=00:01:08.72 bitrate=2572.8kbits/s speed=1.01x    size=   21746kB time=00:01:09.24 bitrate=2572.5kbits/s speed=1.01x    size=   21908kB time=00:01:09.74 bitrate=2573.2kbits/s speed=1.01x    size=   22105kB time=00:01:10.26 bitrate=2577.1kbits/s speed=1.01x    size=   22208kB time=00:01:10.76 bitrate=2570.8kbits/s speed=1.01x    size=   22312kB time=00:01:11.28 bitrate=2564.0kbits/s speed=1.01x    size=   22425kB time=00:01:11.80 bitrate=2558.4kbits/s speed=1.01x    size=   22618kB time=00:01:12.30 bitrate=2562.5kbits/s speed=1.01x    size=   22786kB time=00:01:12.82 bitrate=2563.1kbits/s speed=1.01x    size=   22969kB time=00:01:13.32 bitrate=2566.0kbits/s speed=1.01x    size=   23158kB time=00:01:13.84 bitrate=2568.9kbits/s speed=1.01x    size=   23392kB time=00:01:14.36 bitrate=2576.7kbits/s speed=1.01x    size=   23561kB time=00:01:14.86 bitrate=2578.0kbits/s speed=1.01x    size=   23722kB time=00:01:15.38 bitrate=2577.8kbits/s speed=1.01x    size=   23909kB time=00:01:15.88 bitrate=2581.0kbits/s speed=1.01x    size=   24009kB time=00:01:16.40 bitrate=2574.2kbits/s speed=1.01x    size=   24137kB time=00:01:16.92 bitrate=2570.4kbits/s speed=1.01x    size=   24284kB time=00:01:17.42 bitrate=2569.3kbits/s speed=1.01x    size=   24499kB time=00:01:17.94 bitrate=2574.8kbits/s speed=1.01x    size=   24644kB time=00:01:18.44 bitrate=2573.5kbits/s speed=1.01x    size=   24805kB time=00:01:18.96 bitrate=2573.3kbits/s speed=1.01x    size=   24976kB time=00:01:19.48 bitrate=2574.1kbits/s speed=1.01x    size=   25164kB time=00:01:19.98 bitrate=2577.2kbits/s speed=1.01x    size=   25277kB time=00:01:20.50 bitrate=2572.0kbits/s speed=1.01x    size=   25392kB time=00:01:21.00 bitrate=2567.8kbits/s speed=1.01x    size=   25501kB time=00:01:21.52 bitrate=2562.4kbits/s speed=1.01x    size=   25683kB time=00:01:22.04 bitrate=2564.4kbits/s speed=1.01x    size=   25836kB time=00:01:22.54 bitrate=2563.9kbits/s speed=1.01x    size=   26023kB time=00:01:23.06 bitrate=2566.4kbits/s speed=1.01x    size=   26268kB time=00:01:23.56 bitrate=2575.0kbits/s speed=1.01x    size=   26429kB time=00:01:24.08 bitrate=2574.8kbits/s speed=1.01x    size=   26603kB time=00:01:24.60 bitrate=2575.9kbits/s speed=1.01x    size=   26770kB time=00:01:25.10 bitrate=2576.7kbits/s speed=1.01x    size=   26980kB time=00:01:25.62 bitrate=2581.2kbits/s speed=1.01x    size=   27085kB time=00:01:26.12 bitrate=2576.2kbits/s speed=1.01x    size=   27207kB time=00:01:26.64 bitrate=2572.3kbits/s speed=1.01x    size=   27340kB time=00:01:27.16 bitrate=2569.4kbits/s speed=1.01x    size=   27543kB time=00:01:27.66 bitrate=2573.7kbits/s speed=1.01x    size=   27698kB time=00:01:28.18 bitrate=2572.9kbits/s speed=1.01x    size=   27840kB time=00:01:28.68 bitrate=2571.6kbits/s speed=1.01x    size=   28023kB time=00:01:29.20 bitrate=2573.4kbits/s speed=1.01x    size=   28238kB time=00:01:29.72 bitrate=2578.1kbits/s speed=1.01x    size=   28368kB time=00:01:30.22 bitrate=2575.6kbits/s speed=1.01x    size=   28496kB time=00:01:30.74 bitrate=2572.4kbits/s speed=1.01x    size=   28679kB time=00:01:31.24 bitrate=2574.8kbits/s speed=1.01x    size=   28772kB time=00:01:31.76 bitrate=2568.4kbits/s speed=1.01x    size=   28884kB time=00:01:32.28 bitrate=2563.9kbits/s speed=1.01x    size=   29060kB time=00:01:32.78 bitrate=2565.7kbits/s speed=1.01x    size=   29315kB time=00:01:33.30 bitrate=2573.7kbits/s speed=1.01x    size=   29486kB time=00:01:33.80 bitrate=2574.9kbits/s speed=1.01x    size=   29662kB time=00:01:34.32 bitrate=2576.0kbits/s speed=1.01x    size=   29823kB time=00:01:34.84 bitrate=2575.8kbits/s speed=1.01x    size=   30035kB time=00:01:35.34 bitrate=2580.6kbits/s speed=1.01x    size=   30184kB time=00:01:35.86 bitrate=2579.3kbits/s speed=1.01x    size=   30286kB time=00:01:36.36 bitrate=2574.5kbits/s speed=   1x    size=   30423kB time=00:01:36.88 bitrate=2572.3kbits/s speed=1.01x    size=   30618kB time=00:01:37.40 bitrate=2575.0kbits/s speed=1.01x    size=   30769kB time=00:01:37.90 bitrate=2574.4kbits/s speed=   1x    size=   30929kB time=00:01:38.42 bitrate=2574.2kbits/s speed=1.01x    size=   31153kB time=00:01:38.92 bitrate=2579.7kbits/s speed=   1x    size=   31308kB time=00:01:39.44 bitrate=2579.0kbits/s speed=   1x    size=   31454kB time=00:01:39.96 bitrate=2577.6kbits/s speed=   1x    size=   31587kB time=00:01:40.46 bitrate=2575.5kbits/s speed=   1x    size=   31771kB time=00:01:40.98 bitrate=2577.2kbits/s speed=   1x    size=   31867kB time=00:01:41.48 bitrate=2572.3kbits/s speed=   1x    size=   31981kB time=00:01:42.00 bitrate=2568.3kbits/s speed=   1x    size=   32121kB time=00:01:42.52 bitrate=2566.5kbits/s speed=   1x    size=   32378kB time=00:01:43.02 bitrate=2574.5kbits/s speed=   1x    size=   32568kB time=00:01:43.54 bitrate=2576.6kbits/s speed=   1x    size=   32739kB time=00:01:44.04 bitrate=2577.7kbits/s speed=   1x    size=   32915kB time=00:01:44.56 bitrate=2578.7kbits/s speed=   1x    size=   33135kB time=00:01:45.08 bitrate=2583.0kbits/s speed=   1x    size=   33277kB time=00:01:45.58 bitrate=2581.8kbits/s speed=   1x    size=   33394kB time=00:01:46.10 bitrate=2578.2kbits/s speed=   1x    size=   33574kB time=00:01:46.60 bitrate=2579.9kbits/s speed=   1x    size=   33714kB time=00:01:47.12 bitrate=2578.1kbits/s speed=   1x    size=   33854kB time=00:01:47.64 bitrate=2576.3kbits/s speed=   1x    size=   34000kB time=00:01:48.14 bitrate=2575.4kbits/s speed=   1x    size=   34231kB time=00:01:48.66 bitrate=2580.5kbits/s speed=   1x    size=   34384kB time=00:01:49.16 bitrate=2580.2kbits/s speed=   1x    size=   34548kB time=00:01:49.68 bitrate=2580.2kbits/s speed=   1x    size=   34679kB time=00:01:50.20 bitrate=2577.8kbits/s speed=   1x    size=   34860kB time=00:01:50.70 bitrate=2579.6kbits/s speed=   1x    size=   34967kB time=00:01:51.22 bitrate=2575.4kbits/s speed=   1x    size=   35076kB time=00:01:51.72 bitrate=2571.8kbits/s speed=   1x    size=   35198kB time=00:01:52.24 bitrate=2568.8kbits/s speed=   1x    size=   35432kB time=00:01:52.76 bitrate=2574.0kbits/s speed=   1x    size=   35627kB time=00:01:53.26 bitrate=2576.7kbits/s speed=   1x    size=   35815kB time=00:01:53.78 bitrate=2578.5kbits/s speed=   1x    size=   36058kB time=00:01:54.28 bitrate=2584.6kbits/s speed=   1x    size=   36219kB time=00:01:54.80 bitrate=2584.4kbits/s speed=   1x    size=   36391kB time=00:01:55.36 bitrate=2584.0kbits/s speed=   1x    size=   36523kB time=00:01:55.86 bitrate=2582.2kbits/s speed=   1x    size=   36685kB time=00:01:56.38 bitrate=2582.1kbits/s speed=   1x    size=   36812kB time=00:01:56.90 bitrate=2579.5kbits/s speed=   1x    size=   36948kB time=00:01:57.40 bitrate=2578.0kbits/s speed=   1x    size=   37111kB time=00:01:57.92 bitrate=2578.0kbits/s speed=   1x    size=   37320kB time=00:01:58.42 bitrate=2581.6kbits/s speed=   1x    size=   37474kB time=00:01:58.94 bitrate=2580.9kbits/s speed=   1x    size=   37652kB time=00:01:59.46 bitrate=2581.9kbits/s speed=   1x    size=   37787kB time=00:01:59.96 bitrate=2580.3kbits/s speed=   1x    size=   37955kB time=00:02:00.48 bitrate=2580.6kbits/s speed=   1x    size=   38077kB time=00:02:00.98 bitrate=2578.2kbits/s speed=   1x    size=   38185kB time=00:02:01.50 bitrate=2574.4kbits/s speed=   1x    size=   38371kB time=00:02:02.02 bitrate=2575.9kbits/s speed=   1x    size=   38495kB time=00:02:02.52 bitrate=2573.7kbits/s speed=   1x    size=   38658kB time=00:02:03.04 bitrate=2573.7kbits/s speed=   1x    size=   38863kB time=00:02:03.54 bitrate=2576.9kbits/s speed=   1x    size=   39104kB time=00:02:04.06 bitrate=2582.0kbits/s speed=   1x    size=   39270kB time=00:02:04.58 bitrate=2582.1kbits/s speed=   1x    size=   39431kB time=00:02:05.08 bitrate=2582.4kbits/s speed=   1x    size=   39588kB time=00:02:05.60 bitrate=2581.9kbits/s speed=   1x    size=   39759kB time=00:02:06.10 bitrate=2582.8kbits/s speed=   1x    size=   39869kB time=00:02:06.62 bitrate=2579.3kbits/s speed=   1x    size=   40011kB time=00:02:07.14 bitrate=2577.9kbits/s speed=   1x    size=   40150kB time=00:02:07.64 bitrate=2576.7kbits/s speed=   1x    size=   40364kB time=00:02:08.16 bitrate=2579.9kbits/s speed=   1x    size=   40503kB time=00:02:08.66 bitrate=2578.8kbits/s speed=   1x    size=   40684kB time=00:02:09.18 bitrate=2579.8kbits/s speed=   1x    size=   40908kB time=00:02:09.70 bitrate=2583.7kbits/s speed=   1x    size=   41008kB time=00:02:10.20 bitrate=2580.0kbits/s speed=   1x    size=   41127kB time=00:02:10.72 bitrate=2577.3kbits/s speed=   1x    size=   41233kB time=00:02:11.22 bitrate=2574.0kbits/s speed=   1x    size=   41409kB time=00:02:11.74 bitrate=2574.8kbits/s speed=   1x    size=   41518kB time=00:02:12.26 bitrate=2571.5kbits/s speed=   1x    size=   41681kB time=00:02:12.76 bitrate=2571.8kbits/s speed=   1x    size=   41878kB time=00:02:13.28 bitrate=2573.9kbits/s speed=   1x    size=   42119kB time=00:02:13.78 bitrate=2579.0kbits/s speed=   1x    size=   42289kB time=00:02:14.30 bitrate=2579.4kbits/s speed=   1x    size=   42457kB time=00:02:14.82 bitrate=2579.6kbits/s speed=   1x    size=   42606kB time=00:02:15.32 bitrate=2579.2kbits/s speed=   1x    size=   42813kB time=00:02:15.84 bitrate=2581.8kbits/s speed=   1x    size=   42916kB time=00:02:16.34 bitrate=2578.5kbits/s speed=   1x    size=   43047kB time=00:02:16.86 bitrate=2576.5kbits/s speed=   1x    size=   43248kB time=00:02:17.38 bitrate=2578.7kbits/s speed=   1x    size=   43389kB time=00:02:17.88 bitrate=2577.8kbits/s speed=   1x    size=   43552kB time=00:02:18.40 bitrate=2577.8kbits/s speed=   1x    size=   43714kB time=00:02:18.90 bitrate=2578.0kbits/s speed=   1x    size=   43945kB time=00:02:19.42 bitrate=2582.0kbits/s speed=   1x    size=   44080kB time=00:02:19.94 bitrate=2580.3kbits/s speed=   1x    size=   44200kB time=00:02:20.44 bitrate=2578.1kbits/s speed=   1x    size=   44327kB time=00:02:20.96 bitrate=2575.9kbits/s speed=   1x    size=   44499kB time=00:02:21.46 bitrate=2576.8kbits/s speed=   1x    size=   44609kB time=00:02:21.98 bitrate=2573.7kbits/s speed=   1x    size=   44737kB time=00:02:22.50 bitrate=2571.7kbits/s speed=   1x    size=   45011kB time=00:02:23.00 bitrate=2578.4kbits/s speed=   1x    size=   45182kB time=00:02:23.52 bitrate=2578.8kbits/s speed=   1x    size=   45357kB time=00:02:24.02 bitrate=2579.8kbits/s speed=   1x    size=   45524kB time=00:02:24.54 bitrate=2580.0kbits/s speed=   1x    size=   45747kB time=00:02:25.06 bitrate=2583.4kbits/s speed=   1x    size=   45894kB time=00:02:25.56 bitrate=2582.8kbits/s speed=   1x    size=   46018kB time=00:02:26.08 bitrate=2580.5kbits/s speed=   1x    size=   46135kB time=00:02:26.58 bitrate=2578.2kbits/s speed=   1x    size=   46327kB time=00:02:27.10 bitrate=2579.8kbits/s speed=   1x    size=   46467kB time=00:02:27.62 bitrate=2578.5kbits/s speed=   1x    size=   46613kB time=00:02:28.12 bitrate=2577.9kbits/s speed=   1x    size=   46775kB time=00:02:28.64 bitrate=2577.8kbits/s speed=   1x    size=   47000kB time=00:02:29.14 bitrate=2581.5kbits/s speed=   1x    size=   47172kB time=00:02:29.66 bitrate=2581.9kbits/s speed=   1x    size=   47301kB time=00:02:30.18 bitrate=2580.1kbits/s speed=   1x    size=   47423kB time=00:02:30.68 bitrate=2578.1kbits/s speed=   1x    size=   47589kB time=00:02:31.20 bitrate=2578.2kbits/s speed=   1x    size=   47707kB time=00:02:31.70 bitrate=2576.1kbits/s speed=   1x    size=   47820kB time=00:02:32.22 bitrate=2573.4kbits/s speed=   1x    size=   48059kB time=00:02:32.74 bitrate=2577.5kbits/s speed=   1x    size=   48236kB time=00:02:33.24 bitrate=2578.5kbits/s speed=   1x    size=   48425kB time=00:02:33.76 bitrate=2579.9kbits/s speed=   1x    size=   48584kB time=00:02:34.26 bitrate=2579.9kbits/s speed=   1x    size=   48832kB time=00:02:34.78 bitrate=2584.4kbits/s speed=   1x    size=   48986kB time=00:02:35.30 bitrate=2583.9kbits/s speed=   1x    size=   49121kB time=00:02:35.80 bitrate=2582.7kbits/s speed=   1x    size=   49220kB time=00:02:36.32 bitrate=2579.3kbits/s speed=   1x    size=   49412kB time=00:02:36.82 bitrate=2581.1kbits/s speed=   1x    size=   49563kB time=00:02:37.34 bitrate=2580.4kbits/s speed=   1x    size=   49714kB time=00:02:37.86 bitrate=2579.8kbits/s speed=   1x    size=   49859kB time=00:02:38.36 bitrate=2579.1kbits/s speed=   1x    size=   50090kB time=00:02:38.88 bitrate=2582.6kbits/s speed=   1x    size=   50260kB time=00:02:39.38 bitrate=2583.2kbits/s speed=   1x    size=   50404kB time=00:02:39.90 bitrate=2582.2kbits/s speed=   1x    size=   50600kB time=00:02:40.42 bitrate=2583.8kbits/s speed=   1x    size=   50696kB time=00:02:40.92 bitrate=2580.7kbits/s speed=   1x    size=   50811kB time=00:02:41.44 bitrate=2578.2kbits/s speed=   1x    size=   50914kB time=00:02:41.94 bitrate=2575.5kbits/s speed=   1x    size=   51133kB time=00:02:42.46 bitrate=2578.3kbits/s speed=   1x    size=   51312kB time=00:02:42.98 bitrate=2579.0kbits/s speed=   1x    size=   51494kB time=00:02:43.48 bitrate=2580.3kbits/s speed=   1x    size=   51679kB time=00:02:44.00 bitrate=2581.3kbits/s speed=   1x    size=   51925kB time=00:02:44.50 bitrate=2585.7kbits/s speed=   1x    size=   52083kB time=00:02:45.02 bitrate=2585.4kbits/s speed=   1x    size=   52233kB time=00:02:45.54 bitrate=2584.7kbits/s speed=   1x    size=   52410kB time=00:02:46.04 bitrate=2585.7kbits/s speed=   1x    size=   52520kB time=00:02:46.56 bitrate=2583.0kbits/s speed=   1x    size=   52652kB time=00:02:47.06 bitrate=2581.8kbits/s speed=   1x    size=   52796kB time=00:02:47.58 bitrate=2580.8kbits/s speed=   1x    size=   53003kB time=00:02:48.10 bitrate=2582.9kbits/s speed=   1x    size=   53150kB time=00:02:48.60 bitrate=2582.4kbits/s speed=   1x    size=   53324kB time=00:02:49.12 bitrate=2582.8kbits/s speed=   1x    size=   53477kB time=00:02:49.62 bitrate=2582.6kbits/s speed=   1x    size=   53682kB time=00:02:50.14 bitrate=2584.6kbits/s speed=   1x    size=   53788kB time=00:02:50.66 bitrate=2581.8kbits/s speed=   1x    size=   53894kB time=00:02:51.16 bitrate=2579.4kbits/s speed=   1x    size=   54017kB time=00:02:51.68 bitrate=2577.4kbits/s speed=   1x    size=   54190kB time=00:02:52.18 bitrate=2578.2kbits/s speed=   1x    size=   54350kB time=00:02:52.70 bitrate=2578.0kbits/s speed=   1x    size=   54540kB time=00:02:53.22 bitrate=2579.2kbits/s speed=   1x    size=   54711kB time=00:02:53.72 bitrate=2579.9kbits/s speed=   1x    size=   54973kB time=00:02:54.24 bitrate=2584.5kbits/s speed=   1x    size=   55130kB time=00:02:54.74 bitrate=2584.5kbits/s speed=   1x    size=   55296kB time=00:02:55.26 bitrate=2584.5kbits/s speed=   1x    size=   55494kB time=00:02:55.78 bitrate=2586.1kbits/s speed=   1x    size=   55595kB time=00:02:56.28 bitrate=2583.5kbits/s speed=   1x    size=   55731kB time=00:02:56.80 bitrate=2582.2kbits/s speed=   1x    size=   55870kB time=00:02:57.30 bitrate=2581.3kbits/s speed=   1x    size=   56072kB time=00:02:57.82 bitrate=2583.1kbits/s speed=   1x    size=   56218kB time=00:02:58.34 bitrate=2582.3kbits/s speed=   1x    size=   56374kB time=00:02:58.84 bitrate=2582.2kbits/s speed=   1x    size=   56564kB time=00:02:59.36 bitrate=2583.4kbits/s speed=   1x    size=   56755kB time=00:02:59.86 bitrate=2584.9kbits/s speed=   1x    size=   56879kB time=00:03:00.38 bitrate=2583.1kbits/s speed=   1x    size=   56991kB time=00:03:00.90 bitrate=2580.7kbits/s speed=   1x    size=   57105kB time=00:03:01.40 bitrate=2578.7kbits/s speed=   1x    size=   57293kB time=00:03:01.92 bitrate=2579.9kbits/s speed=   1x    size=   57422kB time=00:03:02.42 bitrate=2578.6kbits/s speed=   1x    size=   57598kB time=00:03:02.94 bitrate=2579.1kbits/s speed=   1x    size=   57850kB time=00:03:03.46 bitrate=2583.1kbits/s speed=   1x    size=   58023kB time=00:03:03.96 bitrate=2583.8kbits/s speed=   1x    size=   58202kB time=00:03:04.48 bitrate=2584.4kbits/s speed=   1x    size=   58350kB time=00:03:04.98 bitrate=2584.0kbits/s speed=   1x    size=   58575kB time=00:03:05.50 bitrate=2586.7kbits/s speed=   1x    size=   58692kB time=00:03:06.02 bitrate=2584.6kbits/s speed=   1x    size=   58803kB time=00:03:06.52 bitrate=2582.5kbits/s speed=   1x    size=   58953kB time=00:03:07.04 bitrate=2582.0kbits/s speed=   1x    size=   59152kB time=00:03:07.54 bitrate=2583.7kbits/s speed=   1x    size=   59296kB time=00:03:08.06 bitrate=2582.9kbits/s speed=   1x    size=   59451kB time=00:03:08.58 bitrate=2582.5kbits/s speed=   1x    size=   59608kB time=00:03:09.08 bitrate=2582.4kbits/s speed=   1x    size=   59828kB time=00:03:09.60 bitrate=2584.9kbits/s speed=   1x    size=   59971kB time=00:03:10.10 bitrate=2584.3kbits/s speed=   1x    size=   60095kB time=00:03:10.62 bitrate=2582.5kbits/s speed=   1x    size=   60280kB time=00:03:11.14 bitrate=2583.4kbits/s speed=   1x    size=   60374kB time=00:03:11.64 bitrate=2580.7kbits/s speed=   1x    size=   60496kB time=00:03:12.16 bitrate=2578.9kbits/s speed=   1x    size=   60653kB time=00:03:12.66 bitrate=2578.9kbits/s speed=   1x    size=   60904kB time=00:03:13.18 bitrate=2582.6kbits/s speed=   1x    size=   61081kB time=00:03:13.70 bitrate=2583.2kbits/s speed=   1x    size=   61249kB time=00:03:14.20 bitrate=2583.6kbits/s speed=   1x    size=   61415kB time=00:03:14.72 bitrate=2583.7kbits/s speed=   1x    size=   61660kB time=00:03:15.22 bitrate=2587.3kbits/s speed=   1x    size=   61798kB time=00:03:15.74 bitrate=2586.2kbits/s speed=   1x    size=   61902kB time=00:03:16.26 bitrate=2583.7kbits/s speed=   1x    size=   62095kB time=00:03:16.76 bitrate=2585.2kbits/s speed=   1x    size=   62244kB time=00:03:17.32 bitrate=2584.1kbits/s speed=   1x    size=   62389kB time=00:03:17.82 bitrate=2583.5kbits/s speed=   1x    size=   62542kB time=00:03:18.34 bitrate=2583.1kbits/s speed=   1x    size=   62755kB time=00:03:18.86 bitrate=2585.1kbits/s speed=   1x    size=   62939kB time=00:03:19.36 bitrate=2586.2kbits/s speed=   1x    size=   63085kB time=00:03:19.88 bitrate=2585.4kbits/s speed=   1x    size=   63207kB time=00:03:20.38 bitrate=2584.0kbits/s speed=   1x    size=   63382kB time=00:03:20.90 bitrate=2584.4kbits/s speed=   1x    size=   63489kB time=00:03:21.42 bitrate=2582.1kbits/s speed=   1x    size=   63605kB time=00:03:21.92 bitrate=2580.4kbits/s speed=   1x    size=   63747kB time=00:03:22.44 bitrate=2579.5kbits/s speed=   1x    size=   63991kB time=00:03:22.94 bitrate=2583.0kbits/s speed=   1x    size=   64174kB time=00:03:23.46 bitrate=2583.8kbits/s speed=   1x    size=   64363kB time=00:03:23.98 bitrate=2584.8kbits/s speed=   1x    size=   64604kB time=00:03:24.48 bitrate=2588.1kbits/s speed=   1x    size=   64761kB time=00:03:25.00 bitrate=2587.8kbits/s speed=   1x    size=   64898kB time=00:03:25.50 bitrate=2587.0kbits/s speed=   1x    size=   65027kB time=00:03:26.02 bitrate=2585.6kbits/s speed=   1x    size=   65202kB time=00:03:26.54 bitrate=2586.0kbits/s speed=   1x    size=   65336kB time=00:03:27.04 bitrate=2585.1kbits/s speed=   1x    size=   65482kB time=00:03:27.56 bitrate=2584.3kbits/s speed=   1x    size=   65625kB time=00:03:28.06 bitrate=2583.8kbits/s speed=   1x    size=   65841kB time=00:03:28.58 bitrate=2585.8kbits/s speed=   1x    size=   65998kB time=00:03:29.10 bitrate=2585.5kbits/s speed=   1x    size=   66181kB time=00:03:29.60 bitrate=2586.5kbits/s speed=   1x    size=   66318kB time=00:03:30.12 bitrate=2585.5kbits/s speed=   1x    size=   66488kB time=00:03:30.62 bitrate=2585.9kbits/s speed=   1x    size=   66590kB time=00:03:31.14 bitrate=2583.5kbits/s speed=   1x    size=   66703kB time=00:03:31.66 bitrate=2581.6kbits/s speed=   1x    size=   66906kB time=00:03:32.16 bitrate=2583.3kbits/s speed=   1x    size=   67040kB time=00:03:32.68 bitrate=2582.2kbits/s speed=   1x    size=   67229kB time=00:03:33.18 bitrate=2583.4kbits/s speed=   1x    size=   67410kB time=00:03:33.70 bitrate=2584.0kbits/s speed=   1x    size=   67664kB time=00:03:34.22 bitrate=2587.4kbits/s speed=   1x    size=   67826kB time=00:03:34.72 bitrate=2587.6kbits/s speed=   1x    size=   67977kB time=00:03:35.24 bitrate=2587.1kbits/s speed=   1x    size=   68116kB time=00:03:35.74 bitrate=2586.4kbits/s speed=   1x    size=   68282kB time=00:03:36.26 bitrate=2586.5kbits/s speed=   1x    size=   68414kB time=00:03:36.78 bitrate=2585.3kbits/s speed=   1x    size=   68556kB time=00:03:37.28 bitrate=2584.6kbits/s speed=   1x    size=   68705kB time=00:03:37.80 bitrate=2584.1kbits/s speed=   1x    size=   68905kB time=00:03:38.30 bitrate=2585.7kbits/s speed=   1x    size=   69065kB time=00:03:38.82 bitrate=2585.5kbits/s speed=   1x    size=   69244kB time=00:03:39.34 bitrate=2586.1kbits/s speed=   1x    size=   69468kB time=00:03:39.84 bitrate=2588.5kbits/s speed=   1x    size=   69570kB time=00:03:40.36 bitrate=2586.2kbits/s speed=   1x    size=   69674kB time=00:03:40.86 bitrate=2584.2kbits/s speed=   1x    size=   69783kB time=00:03:41.38 bitrate=2582.2kbits/s speed=   1x    size=   69959kB time=00:03:41.90 bitrate=2582.6kbits/s speed=   1x    size=   70073kB time=00:03:42.40 bitrate=2581.0kbits/s speed=   1x    size=   70256kB time=00:03:42.92 bitrate=2581.7kbits/s speed=   1x    size=   70449kB time=00:03:43.42 bitrate=2583.0kbits/s speed=   1x    size=   70691kB time=00:03:43.94 bitrate=2585.9kbits/s speed=   1x    size=   70867kB time=00:03:44.46 bitrate=2586.3kbits/s speed=   1x    size=   71032kB time=00:03:44.96 bitrate=2586.6kbits/s speed=   1x    size=   71186kB time=00:03:45.48 bitrate=2586.2kbits/s speed=   1x    size=   71365kB time=00:03:45.98 bitrate=2587.0kbits/s speed=   1x    size=   71474kB time=00:03:46.50 bitrate=2585.0kbits/s speed=   1x    size=   71612kB time=00:03:47.02 bitrate=2584.0kbits/s speed=   1x    size=   71820kB time=00:03:47.52 bitrate=2585.9kbits/s speed=   1x    size=   71960kB time=00:03:48.04 bitrate=2585.0kbits/s speed=   1x    size=   72108kB time=00:03:48.54 bitrate=2584.6kbits/s speed=   1x    size=   72266kB time=00:03:49.06 bitrate=2584.4kbits/s speed=   1x    size=   72511kB time=00:03:49.58 bitrate=2587.3kbits/s speed=   1x    size=   72637kB time=00:03:50.08 bitrate=2586.2kbits/s speed=   1x    size=   72759kB time=00:03:50.60 bitrate=2584.7kbits/s speed=   1x    size=   72870kB time=00:03:51.10 bitrate=2583.0kbits/s speed=   1x    size=   73049kB time=00:03:51.62 bitrate=2583.5kbits/s speed=   1x    size=   73162kB time=00:03:52.14 bitrate=2581.7kbits/s speed=   1x    size=   73327kB time=00:03:52.64 bitrate=2582.0kbits/s speed=   1x    size=   73500kB time=00:03:53.16 bitrate=2582.3kbits/s speed=   1x    size=   73750kB time=00:03:53.66 bitrate=2585.6kbits/s speed=   1x    size=   73929kB time=00:03:54.18 bitrate=2586.1kbits/s speed=   1x    size=   74094kB time=00:03:54.70 bitrate=2586.1kbits/s speed=   1x    size=   74332kB time=00:03:55.20 bitrate=2588.9kbits/s speed=   1x    size=   74468kB time=00:03:55.72 bitrate=2587.9kbits/s speed=   1x    size=   74573kB time=00:03:56.22 bitrate=2586.1kbits/s speed=   1x    size=   74699kB time=00:03:56.74 bitrate=2584.8kbits/s speed=   1x    size=   74904kB time=00:03:57.26 bitrate=2586.2kbits/s speed=   1x    size=   75029kB time=00:03:57.76 bitrate=2585.1kbits/s speed=   1x    size=   75201kB time=00:03:58.30 bitrate=2585.1kbits/s speed=   1x    size=   75347kB time=00:03:58.78 bitrate=2584.9kbits/s speed=   1x    size=   75586kB time=00:03:59.30 bitrate=2587.5kbits/s speed=   1x    size=   75739kB time=00:03:59.82 bitrate=2587.1kbits/s speed=   1x    size=   75872kB time=00:04:00.32 bitrate=2586.2kbits/s speed=   1x    size=   75990kB time=00:04:00.84 bitrate=2584.7kbits/s speed=   1x    size=   76168kB time=00:04:01.34 bitrate=2585.4kbits/s speed=   1x    size=   76277kB time=00:04:01.86 bitrate=2583.5kbits/s speed=   1x    size=   76412kB time=00:04:02.38 bitrate=2582.5kbits/s speed=   1x    size=   76666kB time=00:04:02.88 bitrate=2585.8kbits/s speed=   1x    size=   76824kB time=00:04:03.40 bitrate=2585.6kbits/s speed=   1x    size=   77013kB time=00:04:03.90 bitrate=2586.6kbits/s speed=   1x    size=   77187kB time=00:04:04.42 bitrate=2586.9kbits/s speed=   1x    size=   77424kB time=00:04:04.94 bitrate=2589.4kbits/s speed=   1x    size=   77575kB time=00:04:05.44 bitrate=2589.1kbits/s speed=   1x    size=   77703kB time=00:04:05.96 bitrate=2587.9kbits/s speed=   1x    size=   77812kB time=00:04:06.46 bitrate=2586.3kbits/s speed=   1x    size=   78002kB time=00:04:06.98 bitrate=2587.1kbits/s speed=   1x    size=   78140kB time=00:04:07.50 bitrate=2586.3kbits/s speed=   1x    size=   78278kB time=00:04:08.00 bitrate=2585.6kbits/s speed=   1x    size=   78456kB time=00:04:08.52 bitrate=2586.1kbits/s speed=   1x    size=   78669kB time=00:04:09.02 bitrate=2587.9kbits/s speed=   1x    size=   78844kB time=00:04:09.54 bitrate=2588.2kbits/s speed=   1x    size=   78978kB time=00:04:10.06 bitrate=2587.3kbits/s speed=   1x    size=   79183kB time=00:04:10.56 bitrate=2588.8kbits/s speed=   1x    size=   79265kB time=00:04:11.08 bitrate=2586.1kbits/s speed=   1x    size=   79369kB time=00:04:11.58 bitrate=2584.4kbits/s speed=   1x    size=   79485kB time=00:04:12.10 bitrate=2582.8kbits/s speed=   1x    size=   79707kB time=00:04:12.62 bitrate=2584.7kbits/s speed=   1x    size=   79901kB time=00:04:13.12 bitrate=2585.9kbits/s speed=   1x    size=   80086kB time=00:04:13.64 bitrate=2586.5kbits/s speed=   1x    size=   80257kB time=00:04:14.14 bitrate=2587.0kbits/s speed=   1x    size=   80486kB time=00:04:14.66 bitrate=2589.0kbits/s speed=   1x    size=   80660kB time=00:04:15.18 bitrate=2589.3kbits/s speed=   1x    size=   80803kB time=00:04:15.68 bitrate=2588.8kbits/s speed=   1x    size=   80910kB time=00:04:16.20 bitrate=2587.0kbits/s speed=   1x    size=   81089kB time=00:04:16.70 bitrate=2587.7kbits/s speed=   1x    size=   81221kB time=00:04:17.22 bitrate=2586.7kbits/s speed=   1x    size=   81367kB time=00:04:17.74 bitrate=2586.1kbits/s speed=   1x    size=   81585kB time=00:04:18.24 bitrate=2588.0kbits/s speed=   1x    size=   81739kB time=00:04:18.76 bitrate=2587.7kbits/s speed=   1x    size=   81912kB time=00:04:19.26 bitrate=2588.1kbits/s speed=   1x    size=   82063kB time=00:04:19.78 bitrate=2587.7kbits/s speed=   1x    size=   82268kB time=00:04:20.30 bitrate=2589.0kbits/s speed=   1x    size=   82369kB time=00:04:20.80 bitrate=2587.2kbits/s speed=   1x    size=   82475kB time=00:04:21.32 bitrate=2585.4kbits/s speed=   1x    size=   82587kB time=00:04:21.82 bitrate=2584.0kbits/s speed=   1x    size=   82780kB time=00:04:22.34 bitrate=2584.9kbits/s speed=   1x    size=   82936kB time=00:04:22.86 bitrate=2584.6kbits/s speed=   1x    size=   83144kB time=00:04:23.36 bitrate=2586.2kbits/s speed=   1x    size=   83331kB time=00:04:23.88 bitrate=2586.9kbits/s speed=   1x    size=   83559kB time=00:04:24.38 bitrate=2589.1kbits/s speed=   1x    size=   83730kB time=00:04:24.90 bitrate=2589.3kbits/s speed=   1x    size=   83888kB time=00:04:25.42 bitrate=2589.1kbits/s speed=   1x    size=   84077kB time=00:04:25.92 bitrate=2590.0kbits/s speed=   1x    size=   84180kB time=00:04:26.44 bitrate=2588.1kbits/s speed=   1x    size=   84307kB time=00:04:26.94 bitrate=2587.2kbits/s speed=   1x    size=   84449kB time=00:04:27.46 bitrate=2586.5kbits/s speed=   1x    size=   84658kB time=00:04:27.98 bitrate=2587.9kbits/s speed=   1x    size=   84806kB time=00:04:28.48 bitrate=2587.6kbits/s speed=   1x    size=   84970kB time=00:04:29.00 bitrate=2587.6kbits/s speed=   1x    size=   85141kB time=00:04:29.50 bitrate=2588.0kbits/s speed=   1x    size=   85329kB time=00:04:30.02 bitrate=2588.7kbits/s speed=   1x    size=   85439kB time=00:04:30.54 bitrate=2587.0kbits/s speed=   1x    size=   85556kB time=00:04:31.04 bitrate=2585.8kbits/s speed=   1x    size=   85658kB time=00:04:31.56 bitrate=2583.9kbits/s speed=   1x    size=   85832kB time=00:04:32.06 bitrate=2584.4kbits/s speed=   1x    size=   85971kB time=00:04:32.58 bitrate=2583.7kbits/s speed=   1x    size=   86174kB time=00:04:33.10 bitrate=2584.8kbits/s speed=   1x    size=   86432kB time=00:04:33.60 bitrate=2587.8kbits/s speed=   1x    size=   86598kB time=00:04:34.12 bitrate=2587.9kbits/s speed=   1x    size=   86753kB time=00:04:34.62 bitrate=2587.8kbits/s speed=   1x    size=   86925kB time=00:04:35.14 bitrate=2588.0kbits/s speed=   1x    size=   87132kB time=00:04:35.66 bitrate=2589.3kbits/s speed=   1x    size=   87240kB time=00:04:36.16 bitrate=2587.8kbits/s speed=   1x    size=   87365kB time=00:04:36.68 bitrate=2586.7kbits/s speed=   1x    size=   87498kB time=00:04:37.18 bitrate=2585.9kbits/s speed=   1x    size=   87704kB time=00:04:37.70 bitrate=2587.2kbits/s speed=   1x    size=   87858kB time=00:04:38.22 bitrate=2586.8kbits/s speed=   1x    size=   88008kB time=00:04:38.72 bitrate=2586.6kbits/s speed=   1x    size=   88177kB time=00:04:39.24 bitrate=2586.8kbits/s speed=   1x    size=   88395kB time=00:04:39.74 bitrate=2588.5kbits/s speed=   1x    size=   88533kB time=00:04:40.26 bitrate=2587.7kbits/s speed=   1x    size=   88658kB time=00:04:40.78 bitrate=2586.6kbits/s speed=   1x    size=   88848kB time=00:04:41.28 bitrate=2587.5kbits/s speed=   1x    size=   88934kB time=00:04:41.80 bitrate=2585.3kbits/s speed=   1x    size=   89053kB time=00:04:42.30 bitrate=2584.1kbits/s speed=   1x    size=   89243kB time=00:04:42.86 bitrate=2584.5kbits/s speed=   1x    size=   89502kB time=00:04:43.38 bitrate=2587.3kbits/s speed=   1x    size=   89674kB time=00:04:43.88 bitrate=2587.7kbits/s speed=   1x    size=   89847kB time=00:04:44.40 bitrate=2587.9kbits/s speed=   1x    size=   90007kB time=00:04:44.92 bitrate=2587.8kbits/s speed=   1x    size=   90227kB time=00:04:45.42 bitrate=2589.6kbits/s speed=   1x    size=   90347kB time=00:04:45.94 bitrate=2588.3kbits/s speed=   1x    size=   90465kB time=00:04:46.44 bitrate=2587.2kbits/s speed=   1x    size=   90599kB time=00:04:46.96 bitrate=2586.3kbits/s speed=   1x    size=   90793kB time=00:04:47.48 bitrate=2587.2kbits/s speed=   1x    size=   90930kB time=00:04:47.98 bitrate=2586.6kbits/s speed=   1x    size=   91105kB time=00:04:48.50 bitrate=2586.9kbits/s speed=   1x    size=   91331kB time=00:04:49.00 bitrate=2588.8kbits/s speed=   1x    size=   91498kB time=00:04:49.52 bitrate=2588.9kbits/s speed=   1x    size=   91629kB time=00:04:50.04 bitrate=2588.0kbits/s speed=   1x    size=   91762kB time=00:04:50.54 bitrate=2587.2kbits/s speed=   1x    size=   91941kB time=00:04:51.06 bitrate=2587.7kbits/s speed=   1x    size=   92034kB time=00:04:51.56 bitrate=2585.8kbits/s speed=   1x    size=   92145kB time=00:04:52.08 bitrate=2584.3kbits/s speed=   1x    size=   92309kB time=00:04:52.60 bitrate=2584.3kbits/s speed=   1x    size=   92568kB time=00:04:53.10 bitrate=2587.2kbits/s speed=   1x    size=   92757kB time=00:04:53.62 bitrate=2587.9kbits/s speed=   1x    size=   92920kB time=00:04:54.12 bitrate=2588.0kbits/s speed=   1x    size=   93098kB time=00:04:54.64 bitrate=2588.4kbits/s speed=   1x    size=   93322kB time=00:04:55.16 bitrate=2590.0kbits/s speed=   1x    size=   93472kB time=00:04:55.66 bitrate=2589.8kbits/s speed=   1x    size=   93587kB time=00:04:56.18 bitrate=2588.4kbits/s speed=   1x    size=   93766kB time=00:04:56.68 bitrate=2589.0kbits/s speed=   1x    size=   93904kB time=00:04:57.20 bitrate=2588.3kbits/s speed=   1x    size=   94043kB time=00:04:57.72 bitrate=2587.6kbits/s speed=   1x    size=   94197kB time=00:04:58.22 bitrate=2587.5kbits/s speed=   1x    size=   94417kB time=00:04:58.74 bitrate=2589.0kbits/s speed=   1x    size=   94581kB time=00:04:59.24 bitrate=2589.2kbits/s speed=   1x    size=   94734kB time=00:04:59.76 bitrate=2588.9kbits/s speed=   1x    size=   94866kB time=00:05:00.28 bitrate=2588.0kbits/s speed=   1x    size=   95052kB time=00:05:00.78 bitrate=2588.8kbits/s speed=   1x    size=   95158kB time=00:05:01.30 bitrate=2587.2kbits/s speed=   1x    size=   95267kB time=00:05:01.80 bitrate=2585.9kbits/s speed=   1x    size=   95393kB time=00:05:02.32 bitrate=2584.8kbits/s speed=   1x    size=   95633kB time=00:05:02.84 bitrate=2586.9kbits/s speed=   1x    size=   95824kB time=00:05:03.34 bitrate=2587.8kbits/s speed=   1x    size=   95998kB time=00:05:03.86 bitrate=2588.0kbits/s speed=   1x    size=   96246kB time=00:05:04.36 bitrate=2590.4kbits/s speed=   1x    size=   96414kB time=00:05:04.88 bitrate=2590.5kbits/s speed=   1x    size=   96563kB time=00:05:05.40 bitrate=2590.1kbits/s speed=   1x    size=   96698kB time=00:05:05.90 bitrate=2589.5kbits/s speed=   1x    size=   96870kB time=00:05:06.42 bitrate=2589.7kbits/s speed=   1x    size=   96997kB time=00:05:06.92 bitrate=2588.9kbits/s speed=   1x    size=   97141kB time=00:05:07.44 bitrate=2588.3kbits/s speed=   1x    size=   97283kB time=00:05:07.96 bitrate=2587.7kbits/s speed=   1x    size=   97486kB time=00:05:08.46 bitrate=2589.0kbits/s speed=   1x    size=   97665kB time=00:05:08.98 bitrate=2589.3kbits/s speed=   1x    size=   97836kB time=00:05:09.48 bitrate=2589.7kbits/s speed=   1x    size=   97968kB time=00:05:10.00 bitrate=2588.8kbits/s speed=   1x    size=   98150kB time=00:05:10.52 bitrate=2589.3kbits/s speed=   1x    size=   98258kB time=00:05:11.02 bitrate=2588.0kbits/s speed=   1x    size=   98372kB time=00:05:11.54 bitrate=2586.7kbits/s speed=   1x    size=   98559kB time=00:05:12.04 bitrate=2587.4kbits/s speed=   1x    size=   98682kB time=00:05:12.56 bitrate=2586.3kbits/s speed=   1x    size=   98863kB time=00:05:13.08 bitrate=2586.8kbits/s speed=   1x    size=   99057kB time=00:05:13.58 bitrate=2587.7kbits/s speed=   1x    size=   99309kB time=00:05:14.10 bitrate=2590.0kbits/s speed=   1x    size=   99471kB time=00:05:14.60 bitrate=2590.1kbits/s speed=   1x    size=   99633kB time=00:05:15.12 bitrate=2590.1kbits/s speed=   1x    size=   99772kB time=00:05:15.64 bitrate=2589.4kbits/s speed=   1x    size=   99944kB time=00:05:16.14 bitrate=2589.8kbits/s speed=   1x    size=  100070kB time=00:05:16.66 bitrate=2588.7kbits/s speed=   1x    size=  100205kB time=00:05:17.16 bitrate=2588.2kbits/s speed=   1x    size=  100353kB time=00:05:17.68 bitrate=2587.7kbits/s speed=   1x    size=  100552kB time=00:05:18.20 bitrate=2588.6kbits/s speed=   1x    size=  100716kB time=00:05:18.70 bitrate=2588.8kbits/s speed=   1x    size=  100892kB time=00:05:19.22 bitrate=2589.1kbits/s speed=   1x    size=  101118kB time=00:05:19.72 bitrate=2590.8kbits/s speed=   1x    size=  101219kB time=00:05:20.24 bitrate=2589.2kbits/s speed=   1x    size=  101328kB time=00:05:20.76 bitrate=2587.8kbits/s speed=   1x    size=  101438kB time=00:05:21.26 bitrate=2586.6kbits/s speed=   1x    size=  101625kB time=00:05:21.78 bitrate=2587.2kbits/s speed=   1x    size=  101739kB time=00:05:22.28 bitrate=2586.0kbits/s speed=   1x    size=  101912kB time=00:05:22.80 bitrate=2586.3kbits/s speed=   1x    size=  102091kB time=00:05:23.32 bitrate=2586.6kbits/s speed=   1x    size=  102341kB time=00:05:23.82 bitrate=2589.0kbits/s speed=   1x    size=  102522kB time=00:05:24.34 bitrate=2589.4kbits/s speed=   1x    size=  102683kB time=00:05:24.84 bitrate=2589.5kbits/s speed=   1x    size=  102839kB time=00:05:25.36 bitrate=2589.3kbits/s speed=   1x    size=  103017kB time=00:05:25.88 bitrate=2589.6kbits/s speed=   1x    size=  103128kB time=00:05:26.38 bitrate=2588.4kbits/s speed=   1x    size=  103272kB time=00:05:26.90 bitrate=2587.9kbits/s speed=   1x    size=  103469kB time=00:05:27.40 bitrate=2588.9kbits/s speed=   1x    size=  103609kB time=00:05:27.92 bitrate=2588.3kbits/s speed=   1x    size=  103755kB time=00:05:28.44 bitrate=2587.8kbits/s speed=   1x    size=  103925kB time=00:05:28.94 bitrate=2588.1kbits/s speed=   1x    size=  104152kB time=00:05:29.46 bitrate=2589.7kbits/s speed=   1x    size=  104293kB time=00:05:29.96 bitrate=2589.3kbits/s speed=   1x    size=  104417kB time=00:05:30.48 bitrate=2588.2kbits/s speed=   1x    size=  104537kB time=00:05:31.00 bitrate=2587.2kbits/s speed=   1x    [flv @ 0x61dba8824bc0] Failed to update header with correct duration.
[flv @ 0x61dba8824bc0] Failed to update header with correct filesize.
[out#0/flv @ 0x61dba86214c0] video:98867kB audio:5216kB subtitle:0kB other streams:0kB global headers:0kB muxing overhead: 0.590100%
size=  104697kB time=00:05:31.45 bitrate=2587.6kbits/s speed=   1x    
[aac @ 0x61dba8624900] Qavg: 497.399
Exiting normally, received signal 15.
